g model
v -0.0303146355 -2.90235943E-18 0.0473991223
v 0.0303145591 2.90235943E-18 -0.0473991223
v -0.0303146355 2.90235943E-18 -0.0473991223
v 0.0303145591 -2.90235943E-18 0.0473991223
v -0.0303146355 0.027289642 0.0473991223
v 0.0303145591 0.027289642 -0.0473991223
v 0.0303145591 0.027289642 0.0473991223
v -0.0303146355 0.027289642 -0.0473991223
v -0.0303146355 -2.90235943E-18 0.0473991223
v 0.0303145591 0.027289642 0.0473991223
v 0.0303145591 -2.90235943E-18 0.0473991223
v -0.0303146355 0.027289642 0.0473991223
v 0.0303145591 -2.90235943E-18 0.0473991223
v 0.0303145591 0.027289642 -0.0473991223
v 0.0303145591 2.90235943E-18 -0.0473991223
v 0.0303145591 0.027289642 0.0473991223
v 0.0303145591 2.90235943E-18 -0.0473991223
v -0.0303146355 0.027289642 -0.0473991223
v -0.0303146355 2.90235943E-18 -0.0473991223
v 0.0303145591 0.027289642 -0.0473991223
v -0.0303146355 2.90235943E-18 -0.0473991223
v -0.0303146355 0.027289642 0.0473991223
v -0.0303146355 -2.90235943E-18 0.0473991223
v -0.0303146355 0.027289642 -0.0473991223
vt 0.718152165 0.0593217909
vt 0.757928371 0.00101545686
vt 0.718152165 0.00101545686
vt 0.757929444 0.0593217909
vt 0.812234104 0.0589948148
vt 0.77234906 0.00101539737
vt 0.77234906 0.058994934
vt 0.812234104 0.00101557688
vt 0.812888086 0.0713442937
vt 0.771913111 0.0598394312
vt 0.771913111 0.071344465
vt 0.812888086 0.0598390587
vt 0.758838356 0.0593217835
vt 0.771542192 0.00101539737
vt 0.758837521 0.00101545756
vt 0.771542192 0.0593219064
vt 0.764946401 0.07888785
vt 0.723941207 0.0611632131
vt 0.72394067 0.0788870901
vt 0.764946401 0.0611634664
vt 0.829451203 0.00101545709
vt 0.813586116 0.0587768294
vt 0.829451203 0.0587768294
vt 0.813586116 0.0010155763
vn -0 -1 0
vn -0 -1 0
vn -0 -1 0
vn -0 -1 0
vn -0 1 0
vn -0 1 0
vn -0 1 0
vn -0 1 0
vn -0 0 1
vn -0 0 1
vn -0 0 1
vn -0 0 1
vn 1 0 0
vn 1 0 0
vn 1 0 0
vn 1 0 0
vn -0 0 -1
vn -0 0 -1
vn -0 0 -1
vn -0 0 -1
vn -1 0 0
vn -1 0 0
vn -1 0 0
vn -1 0 0
g model_0
f 3/3/3 2/2/2 1/1/1
f 4/4/4 1/1/1 2/2/2
f 7/7/7 6/6/6 5/5/5
f 8/8/8 5/5/5 6/6/6
f 11/11/11 10/10/10 9/9/9
f 12/12/12 9/9/9 10/10/10
f 15/15/15 14/14/14 13/13/13
f 16/16/16 13/13/13 14/14/14
f 19/19/19 18/18/18 17/17/17
f 20/20/20 17/17/17 18/18/18
f 23/23/23 22/22/22 21/21/21
f 24/24/24 21/21/21 22/22/22
