g crikent
v 0.00830714218 0.00691188639 -0.0421405174
v 0.00413688924 0.00585026899 -0.0415733382
v 0.00245668972 0.0066248863 -0.0413466766
v 0.00830714218 0.00691188639 -0.0421405174
v 0.00800041948 0.00562576158 -0.0420988835
v 0.0108486051 0.00420048134 -0.0424853116
v 0.00830714218 0.00691188639 -0.0421405174
v 0.0124201011 0.00489756651 -0.0426986255
v 0.0125058517 -5.23044582E-18 -0.0427098311
v 0.0139334202 -5.24922737E-18 -0.0428631902
v 0.00830714218 -0.00691172341 -0.0421405174
v 0.00245668972 -0.00662472332 -0.0413466766
v 0.00413688924 -0.00585026899 -0.0415733382
v 0.00830714218 -0.00691172341 -0.0421405174
v 0.00799988396 -0.00562559906 -0.0420988835
v 0.0108486051 -0.00420069834 -0.0424853116
v 0.00830714218 -0.00691172341 -0.0421405174
v 0.0124201011 -0.00489718653 -0.0426986255
v 0.0125058517 -5.23044582E-18 -0.0427098311
v 0.0139334202 -5.24922737E-18 -0.0428631902
v -0.0126448078 0.00520498073 0.0563656241
v -0.0142890681 6.90279781E-18 0.0563656241
v -0.0142890681 -4.60373905E-18 -0.0375923775
v -0.0126448078 0.00520530622 -0.0375923775
v -0.00867488421 0.00736106327 0.0563656241
v -0.00867488421 0.00736106327 -0.0375923775
v 0.00464162277 0.00736106327 0.0563656241
v 0.00464162277 0.00736106327 -0.0375923775
v 0.00867506023 0.00736106327 -0.0375923775
v 0.00867506023 0.00736106327 0.0563656241
v 0.0126448041 0.00520530622 -0.0375923775
v 0.0126448041 0.00520498073 0.0563656241
v 0.0142890615 -4.60373905E-18 -0.0375923775
v 0.0142890615 6.90279781E-18 0.0563656241
v 0.0126448041 -0.00520503521 -0.0375923775
v 0.0126448041 -0.00520503521 0.0563656241
v 0.00867506023 -0.00736106327 -0.0375923775
v 0.00867506023 -0.00736106327 0.0563656241
v 0.00464162277 -0.00736106327 -0.0375923775
v 0.00464162277 -0.00736106327 0.0563656241
v -0.00867488421 -0.00736106327 0.0563656241
v -0.00867488421 -0.00736106327 -0.0375923775
v -0.0126448078 -0.00520503521 0.0563656241
v -0.0126448078 -0.00520503521 -0.0375923775
v -0.0142890681 6.90279781E-18 0.0563656241
v -0.0142890681 -4.60373905E-18 -0.0375923775
v -0.0126448078 0.00520498073 0.0563656241
v -0.0126448078 -0.00520503521 0.0563656241
v -0.0142890681 6.90279781E-18 0.0563656241
v -0.00867488421 -0.00736106327 0.0563656241
v -0.00867488421 0.00736106327 0.0563656241
v 0.00464162277 0.00736106327 0.0563656241
v 0.00464162277 -0.00736106327 0.0563656241
v 0.00867506023 -0.00736106327 0.0563656241
v 0.00867506023 0.00736106327 0.0563656241
v 0.0126448041 0.00520498073 0.0563656241
v 0.0126448041 -0.00520503521 0.0563656241
v 0.0142890615 6.90279781E-18 0.0563656241
v 0.00464162277 0.00736106327 -0.0375923775
v 0.00464162277 0.00677235005 -0.0375925563
v 0.00867506023 0.00736106327 -0.0375923775
v 0.00795558654 0.00562576158 -0.0375925563
v 0.00404953631 0.00585026899 -0.0375925563
v 0.010835439 0.00420048134 -0.0375925563
v 0.0126448041 0.00520530622 -0.0375923775
v 0.0125065641 -4.60376055E-18 -0.0375925563
v 0.0142890615 -4.60373905E-18 -0.0375923775
v 0.0125065641 -4.60376055E-18 -0.0375925563
v 0.0126448041 -0.00520503521 -0.0375923775
v 0.0142890615 -4.60373905E-18 -0.0375923775
v 0.0108192526 -0.00419483474 -0.0375925563
v 0.00867506023 -0.00736106327 -0.0375923775
v 0.0079550501 -0.00562559906 -0.0375925563
v 0.00464162277 -0.00677153515 -0.0375923775
v 0.00404953631 -0.00585026899 -0.0375925563
v 0.00464162277 -0.00736106327 -0.0375923775
v -0.00867488421 0.00736106327 -0.0516534522
v 0.00464162277 0.00736106327 -0.0516534522
v 0.00464162277 0.00736106327 -0.0375923775
v -0.00867488421 0.00736106327 -0.0375923775
v -0.0126448078 0.00520530622 -0.0516534522
v -0.0126448078 0.00520530622 -0.0375923775
v -0.0142890681 -6.32572353E-18 -0.0516534522
v -0.0142890681 -4.60373905E-18 -0.0375923775
v -0.0126448078 -0.00520503521 -0.0516534522
v -0.0126448078 -0.00520503521 -0.0375923775
v -0.00867488421 -0.00736106327 -0.0516534522
v -0.00867488421 -0.00736106327 -0.0375923775
v 0.00464162277 -0.00736106327 -0.0516534522
v 0.00464162277 -0.00736106327 -0.0375923775
v -0.00866937358 0.00677164365 -0.0516534522
v 0.00464162277 0.00677164365 -0.0516534522
v 0.00464162277 0.00736106327 -0.0516534522
v -0.00867488421 0.00736106327 -0.0516534522
v -0.0126448078 0.00520530622 -0.0516534522
v -0.0121140974 0.0047883261 -0.0516534522
v -0.0142890681 -6.32572353E-18 -0.0516534522
v -0.013626704 -6.32572353E-18 -0.0516534522
v -0.0121140974 -0.00478794612 -0.0516534522
v -0.0126448078 -0.00520503521 -0.0516534522
v -0.00866937358 -0.00677153515 -0.0516534522
v -0.00867488421 -0.00736106327 -0.0516534522
v 0.00464162277 -0.00677153515 -0.0516534522
v 0.00464162277 -0.00736106327 -0.0516534522
v -0.00866937358 0.00677164365 -0.0375925563
v 0.00464162277 0.00677235005 -0.0375925563
v 0.00464162277 0.00677164365 -0.0516534522
v -0.00866937358 0.00677164365 -0.0516534522
v -0.0121140974 0.0047883261 -0.0375925563
v -0.0121140974 0.0047883261 -0.0516534522
v -0.013626704 -4.60376055E-18 -0.0375925563
v -0.013626704 -6.32572353E-18 -0.0516534522
v 0.00464162277 -0.00677153515 -0.0375923775
v -0.00866937358 -0.00677153515 -0.0516534522
v 0.00464162277 -0.00677153515 -0.0516534522
v -0.00866937358 -0.00677153515 -0.0375925563
v -0.0121140974 -0.00478794612 -0.0516534522
v -0.0121140974 -0.00478794612 -0.0375925563
v -0.013626704 -6.32572353E-18 -0.0516534522
v -0.013626704 -4.60376055E-18 -0.0375925563
v 0.00464162277 0.00677235005 -0.0375925563
v 0.00464162277 0.00736106327 -0.0375923775
v 0.00464162277 0.00736106327 -0.0516534522
v 0.00464162277 0.00677164365 -0.0516534522
v 0.00464162277 -0.00677153515 -0.0516534522
v 0.00464162277 -0.00736106327 -0.0516534522
v 0.00464162277 -0.00736106327 -0.0375923775
v 0.00464162277 -0.00677153515 -0.0375923775
v 0.00795220677 0.00691188639 -0.0447556451
v 0.00245668972 0.0066248863 -0.0413466766
v 0.00210193731 0.0066248863 -0.0439617969
v 0.00830714218 0.00691188639 -0.0421405174
v 0.0120653482 0.00489756651 -0.0453137495
v 0.0124201011 0.00489756651 -0.0426986255
v 0.0135784838 -5.56948771E-18 -0.0454783179
v 0.0139334202 -5.24922737E-18 -0.0428631902
v 0.0124201011 -0.00489718653 -0.0426986255
v 0.0120653482 -0.00489718653 -0.0453137495
v 0.00795220677 -0.00691172341 -0.0447556451
v 0.00830714218 -0.00691172341 -0.0421405174
v 0.00210193731 -0.00662472332 -0.0439617969
v 0.00245668972 -0.00662472332 -0.0413466766
v 0.00210193731 0.0066248863 -0.0439617969
v 0.00245668972 0.0066248863 -0.0413466766
v 0.00245668972 -0.00662472332 -0.0413466766
v 0.00210193731 -0.00662472332 -0.0439617969
v 0.00413688924 0.00585026899 -0.0415733382
v 0.00795558654 0.00562576158 -0.0375925563
v 0.00404953631 0.00585026899 -0.0375925563
v 0.00800041948 0.00562576158 -0.0420988835
v 0.010835439 0.00420048134 -0.0375925563
v 0.0108486051 0.00420048134 -0.0424853116
v 0.0125065641 -4.60376055E-18 -0.0375925563
v 0.0125058517 -5.23044582E-18 -0.0427098311
v 0.00413688924 -0.00585026899 -0.0415733382
v 0.00404953631 -0.00585026899 -0.0375925563
v 0.0079550501 -0.00562559906 -0.0375925563
v 0.00799988396 -0.00562559906 -0.0420988835
v 0.0108192526 -0.00419483474 -0.0375925563
v 0.0108486051 -0.00420069834 -0.0424853116
v 0.0125065641 -4.60376055E-18 -0.0375925563
v 0.0125058517 -5.23044582E-18 -0.0427098311
v 0.00413688924 -0.00585026899 -0.0415733382
v 0.00413688924 0.00585026899 -0.0415733382
v 0.00404953631 0.00585026899 -0.0375925563
v 0.00404953631 -0.00585026899 -0.0375925563
v 0.00245668972 -0.00662472332 -0.0413466766
v 0.00245668972 0.0066248863 -0.0413466766
v 0.00413688924 0.00585026899 -0.0415733382
v 0.00413688924 -0.00585026899 -0.0415733382
v 0.00795220677 -0.00691172341 -0.0447556451
v 0.00210193731 0.0066248863 -0.0439617969
v 0.00210193731 -0.00662472332 -0.0439617969
v 0.00795220677 0.00691188639 -0.0447556451
v 0.0120653482 0.00489756651 -0.0453137495
v 0.0120653482 -0.00489718653 -0.0453137495
v 0.0135784838 -5.56948771E-18 -0.0454783179
v -0.013626704 -4.60376055E-18 -0.0375925563
v -0.0121140974 -0.00478794612 -0.0375925563
v -0.00866937358 -0.00677153515 -0.0375925563
v -0.00866937358 0.00677164365 -0.0375925563
v -0.0121140974 0.0047883261 -0.0375925563
v 0.00404953631 -0.00585026899 -0.0375925563
v 0.00464162277 -0.00677153515 -0.0375923775
v 0.00404953631 0.00585026899 -0.0375925563
v 0.00464162277 0.00677235005 -0.0375925563
v 0.00109869335 -0.0029273876 -0.0429875553
v -0.00336849527 0.0029049099 -0.0448380113
v 0.00109869335 0.0029049099 -0.0429875553
v -0.00336849527 -0.0029273876 -0.0448380113
v -0.00521895476 0.0029049099 -0.0493051931
v -0.00521895476 -0.0029273876 -0.0493051931
v -0.00336849527 0.0029049099 -0.0537723862
v -0.00336849527 -0.0029273876 -0.0537723862
v 0.00109869335 0.0029049099 -0.0556228422
v 0.00109869335 -0.0029273876 -0.0556228422
v 0.00556587521 0.0029049099 -0.0537723862
v 0.00556587521 -0.0029273876 -0.0537723862
v 0.00741633447 0.0029049099 -0.0493051931
v 0.00741633447 -0.0029273876 -0.0493051931
v 0.00556587521 0.0029049099 -0.0448380113
v 0.00556587521 -0.0029273876 -0.0448380113
v 0.00109869335 0.0029049099 -0.0429875553
v 0.00109869335 -0.0029273876 -0.0429875553
v -0.00596173527 -0.0066391658 -0.0493051931
v -0.00389369112 -0.0066391658 -0.0443128198
v 0.00109869335 -0.0066391658 -0.0422447734
v 0.00815911498 -0.0066391658 -0.0493051931
v 0.00609107129 -0.0066391658 -0.0443128198
v 0.00109869335 -0.0066391658 -0.0563656241
v -0.00389369112 -0.0066391658 -0.0542975813
v 0.00609107129 -0.0066391658 -0.0542975813
v -0.00389369112 0.00661614444 -0.0542975813
v 0.00109869335 0.00661614444 -0.0563656241
v 0.00609107129 0.00661614444 -0.0542975813
v 0.00609107129 0.00661614444 -0.0443128198
v 0.00815911498 0.00661614444 -0.0493051931
v -0.00389369112 0.00661614444 -0.0443128198
v -0.00596173527 0.00661614444 -0.0493051931
v 0.00109869335 0.00661614444 -0.0422447734
v 0.00109869335 0.0029049099 -0.0422447734
v -0.00389369112 0.00661614444 -0.0443128198
v 0.00109869335 0.00661614444 -0.0422447734
v -0.00389369112 0.0029049099 -0.0443128198
v -0.00596173527 0.00661614444 -0.0493051931
v -0.00596173527 0.0029049099 -0.0493051931
v -0.00389369112 0.00661614444 -0.0542975813
v -0.00389369112 0.0029049099 -0.0542975813
v 0.00109869335 0.00661614444 -0.0563656241
v 0.00109869335 0.0029049099 -0.0563656241
v 0.00609107129 0.00661614444 -0.0542975813
v 0.00609107129 0.0029049099 -0.0542975813
v 0.00815911498 0.00661614444 -0.0493051931
v 0.00815911498 0.0029049099 -0.0493051931
v 0.00609107129 0.00661614444 -0.0443128198
v 0.00609107129 0.0029049099 -0.0443128198
v 0.00109869335 0.00661614444 -0.0422447734
v 0.00109869335 0.0029049099 -0.0422447734
v -0.00389369112 -0.0029273876 -0.0443128198
v 0.00109869335 -0.0029273876 -0.0422447734
v 0.00109869335 -0.0066391658 -0.0422447734
v -0.00389369112 -0.0066391658 -0.0443128198
v -0.00596173527 -0.0029273876 -0.0493051931
v -0.00596173527 -0.0066391658 -0.0493051931
v -0.00389369112 -0.0029273876 -0.0542975813
v -0.00389369112 -0.0066391658 -0.0542975813
v 0.00109869335 -0.0029273876 -0.0563656241
v 0.00109869335 -0.0066391658 -0.0563656241
v 0.00609107129 -0.0029273876 -0.0542975813
v 0.00609107129 -0.0066391658 -0.0542975813
v 0.00815911498 -0.0029273876 -0.0493051931
v 0.00815911498 -0.0066391658 -0.0493051931
v 0.00609107129 -0.0029273876 -0.0443128198
v 0.00609107129 -0.0066391658 -0.0443128198
v 0.00109869335 -0.0029273876 -0.0422447734
v 0.00109869335 -0.0066391658 -0.0422447734
v 0.00556587521 0.0029049099 -0.0448380113
v 0.00109869335 0.0029049099 -0.0429875553
v 0.00109869335 0.0029049099 -0.0422447734
v 0.00609107129 0.0029049099 -0.0443128198
v 0.00741633447 0.0029049099 -0.0493051931
v 0.00815911498 0.0029049099 -0.0493051931
v 0.00556587521 0.0029049099 -0.0537723862
v 0.00609107129 0.0029049099 -0.0542975813
v 0.00109869335 0.0029049099 -0.0556228422
v 0.00109869335 0.0029049099 -0.0563656241
v -0.00336849527 0.0029049099 -0.0537723862
v -0.00389369112 0.0029049099 -0.0542975813
v -0.00521895476 0.0029049099 -0.0493051931
v -0.00596173527 0.0029049099 -0.0493051931
v -0.00336849527 0.0029049099 -0.0448380113
v -0.00389369112 0.0029049099 -0.0443128198
v 0.00109869335 0.0029049099 -0.0429875553
v 0.00109869335 0.0029049099 -0.0422447734
v -0.00336849527 -0.0029273876 -0.0448380113
v 0.00109869335 -0.0029273876 -0.0429875553
v 0.00109869335 -0.0029273876 -0.0422447734
v -0.00389369112 -0.0029273876 -0.0443128198
v -0.00521895476 -0.0029273876 -0.0493051931
v -0.00596173527 -0.0029273876 -0.0493051931
v -0.00336849527 -0.0029273876 -0.0537723862
v -0.00389369112 -0.0029273876 -0.0542975813
v 0.00109869335 -0.0029273876 -0.0556228422
v 0.00109869335 -0.0029273876 -0.0563656241
v 0.00556587521 -0.0029273876 -0.0537723862
v 0.00609107129 -0.0029273876 -0.0542975813
v 0.00741633447 -0.0029273876 -0.0493051931
v 0.00815911498 -0.0029273876 -0.0493051931
v 0.00556587521 -0.0029273876 -0.0448380113
v 0.00609107129 -0.0029273876 -0.0443128198
v 0.00109869335 -0.0029273876 -0.0429875553
v 0.00109869335 -0.0029273876 -0.0422447734
vt 0.860899985 0.723699987
vt 0.85680002 0.740499973
vt 0.860899985 0.743600011
vt 0.860899985 0.723699987
vt 0.85680002 0.723699987
vt 0.85680002 0.709299982
vt 0.860899985 0.723699987
vt 0.860899985 0.709299982
vt 0.85680002 0.693400025
vt 0.860899985 0.691900015
vt 0.860899985 0.723699987
vt 0.860899985 0.743600011
vt 0.85680002 0.740499973
vt 0.860899985 0.723699987
vt 0.85680002 0.723699987
vt 0.85680002 0.709299982
vt 0.860899985 0.723699987
vt 0.860899985 0.709299982
vt 0.85680002 0.693400025
vt 0.860899985 0.691900015
vt 0.262199998 0.96509999
vt 0.262199998 0.994300008
vt 0.766200006 0.994300008
vt 0.766200006 0.96509999
vt 0.262199998 0.940800011
vt 0.766200006 0.940800011
vt 0.262199998 0.869400024
vt 0.766200006 0.869400024
vt 0.766200006 0.847800016
vt 0.262199998 0.847800016
vt 0.766200006 0.823499978
vt 0.262199998 0.823499978
vt 0.766200006 0.79430002
vt 0.262199998 0.79430002
vt 0.766200006 0.764999986
vt 0.262199998 0.764999986
vt 0.766200006 0.740800023
vt 0.262199998 0.740800023
vt 0.766200006 0.719099998
vt 0.262199998 0.719099998
vt 0.262199998 0.647700012
vt 0.766200006 0.647700012
vt 0.262199998 0.62349999
vt 0.766200006 0.62349999
vt 0.262199998 0.594200015
vt 0.766200006 0.594200015
vt 0.783399999 0.602299988
vt 0.841899991 0.602299988
vt 0.81220001 0.593999982
vt 0.854200006 0.622200012
vt 0.770299971 0.622200012
vt 0.770299971 0.688899994
vt 0.854200006 0.688899994
vt 0.854200006 0.709200025
vt 0.770299971 0.709200025
vt 0.781799972 0.729099989
vt 0.841899991 0.729099989
vt 0.81220001 0.737299979
vt -0.1017 0.690999985
vt -0.0986000001 0.686800003
vt -0.126499996 0.66930002
vt -0.114600003 0.663200021
vt -0.0856999978 0.688499987
vt -0.129099995 0.635100007
vt -0.141599998 0.635299981
vt -0.117299996 0.601400018
vt -0.126800001 0.593100011
vt 0.882700026 0.601400018
vt 0.858399987 0.635299981
vt 0.873199999 0.593100011
vt 0.870899975 0.63499999
vt 0.87349999 0.66930002
vt 0.885399997 0.663200021
vt 0.90140003 0.68690002
vt 0.914300025 0.688600004
vt 0.898299992 0.690999985
vt 0.848699987 0.816699982
vt 0.848699987 0.744799972
vt 0.773100019 0.744799972
vt 0.773100019 0.816699982
vt 0.848699987 0.840200007
vt 0.773100019 0.840200007
vt 0.848699987 0.869099975
vt 0.773100019 0.869099975
vt 0.848699987 0.898000002
vt 0.773100019 0.898000002
vt 0.848699987 0.921599984
vt 0.773100019 0.921599984
vt 0.848699987 0.993399978
vt 0.773100019 0.993399978
vt 0.851999998 0.816699982
vt 0.851999998 0.744799972
vt 0.848699987 0.744799972
vt 0.848699987 0.816699982
vt 0.848699987 0.840200007
vt 0.851999998 0.840200007
vt 0.848699987 0.869099975
vt 0.851999998 0.869099975
vt 0.851999998 0.898000002
vt 0.848699987 0.898000002
vt 0.851999998 0.921599984
vt 0.848699987 0.921599984
vt 0.851999998 0.993399978
vt 0.848699987 0.993399978
vt -0.138799995 0.537400007
vt -0.183799997 0.537400007
vt -0.183799997 0.584900022
vt -0.138799995 0.584900022
vt -0.125400007 0.537400007
vt -0.125400007 0.584900022
vt -0.108400002 0.537400007
vt -0.108400002 0.584900022
vt 0.816200018 0.537400007
vt 0.861100018 0.584900022
vt 0.816200018 0.584900022
vt 0.861100018 0.537400007
vt 0.874599993 0.584900022
vt 0.874599993 0.537400007
vt 0.891499996 0.584900022
vt 0.891499996 0.537400007
vt 0.773100019 0.74150002
vt 0.773100019 0.744799972
vt 0.848699987 0.744799972
vt 0.848699987 0.74150002
vt 0.848699987 0.996699989
vt 0.848699987 0.993399978
vt 0.773100019 0.993399978
vt 0.773100019 0.996699989
vt 0.887799978 0.949999988
vt 0.856700003 0.996699989
vt 0.887799978 0.996699989
vt 0.856700003 0.949999988
vt 0.887799978 0.913399994
vt 0.856700003 0.913399994
vt 0.887799978 0.872099996
vt 0.856700003 0.872099996
vt 0.856700003 0.830799997
vt 0.887799978 0.830799997
vt 0.887799978 0.79430002
vt 0.856700003 0.79430002
vt 0.887799978 0.747500002
vt 0.856700003 0.747500002
vt 0.887300014 0.689899981
vt 0.875999987 0.689899981
vt 0.875999987 0.745199978
vt 0.887300014 0.745199978
vt -0.0922000036 0.542200029
vt -0.0487999991 0.514800012
vt -0.0487999991 0.542200029
vt -0.0980999991 0.514800012
vt -0.0487999991 0.492199987
vt -0.102399997 0.492199987
vt -0.0487999991 0.460299999
vt -0.104900002 0.460299999
vt 0.907800019 0.542200029
vt 0.951200008 0.542200029
vt 0.951200008 0.514800012
vt 0.901899993 0.514800012
vt 0.951200008 0.492199987
vt 0.897599995 0.492199987
vt 0.951200008 0.460299999
vt 0.895099998 0.460299999
vt 0.874100029 0.741999984
vt 0.874100029 0.693199992
vt 0.864499986 0.693199992
vt 0.864499986 0.741999984
vt 0.875999987 0.745199978
vt 0.875999987 0.689899981
vt 0.874100029 0.693199992
vt 0.874100029 0.741999984
vt 0.941500008 0.550999999
vt 0.998300016 0.68720001
vt 0.99849999 0.55400002
vt 0.941500008 0.689999998
vt 0.901499987 0.669700027
vt 0.901499987 0.571200013
vt 0.886799991 0.620400012
vt 0.597299993 0.502699971
vt 0.574400008 0.509500027
vt 0.565100014 0.524800003
vt 0.629999995 0.524100006
vt 0.620299995 0.50910002
vt 0.570100009 0.577099979
vt 0.565800011 0.583299994
vt 0.62620002 0.576499999
vt 0.630699992 0.582599998
vt 0.922399998 0.694700003
vt 0.964600027 0.732299984
vt 0.964600027 0.694700003
vt 0.922399998 0.732299984
vt 0.964600027 0.770299971
vt 0.922399998 0.770299971
vt 0.964600027 0.808300018
vt 0.922399998 0.808300018
vt 0.964600027 0.846099973
vt 0.922399998 0.846099973
vt 0.964600027 0.883899987
vt 0.922399998 0.883899987
vt 0.964600027 0.921800017
vt 0.922399998 0.921800017
vt 0.964600027 0.959800005
vt 0.922399998 0.959800005
vt 0.964600027 0.997399986
vt 0.922399998 0.997399986
vt 0.353700012 0.318800002
vt 0.320100009 0.305200011
vt 0.306199998 0.272500008
vt 0.353700012 0.226199999
vt 0.320100009 0.239800006
vt 0.40110001 0.272500008
vt 0.387199998 0.305200011
vt 0.387199998 0.239800006
vt -0.612800002 0.305200011
vt -0.59890002 0.272500008
vt -0.612800002 0.239800006
vt -0.679899991 0.239800006
vt -0.646300018 0.226199999
vt -0.679899991 0.305200011
vt -0.646300018 0.318800002
vt -0.693799973 0.272500008
vt 0.969399989 0.694700003
vt 0.996399999 0.732299984
vt 0.996399999 0.694700003
vt 0.969399989 0.732299984
vt 0.996399999 0.770299971
vt 0.969399989 0.770299971
vt 0.996399999 0.808300018
vt 0.969399989 0.808300018
vt 0.996399999 0.846099973
vt 0.969399989 0.846099973
vt 0.996399999 0.883899987
vt 0.969399989 0.883899987
vt 0.996399999 0.921800017
vt 0.969399989 0.921800017
vt 0.996399999 0.959800005
vt 0.969399989 0.959800005
vt 0.996399999 0.997399986
vt 0.969399989 0.997399986
vt 0.917500019 0.732299984
vt 0.917500019 0.694700003
vt 0.890500009 0.694700003
vt 0.890500009 0.732299984
vt 0.917500019 0.770299971
vt 0.890500009 0.770299971
vt 0.917500019 0.808300018
vt 0.890500009 0.808300018
vt 0.917500019 0.846099973
vt 0.890500009 0.846099973
vt 0.917500019 0.883899987
vt 0.890500009 0.883899987
vt 0.917500019 0.921800017
vt 0.890500009 0.921800017
vt 0.917500019 0.959800005
vt 0.890500009 0.959800005
vt 0.917500019 0.997399986
vt 0.890500009 0.997399986
vt 0.964600027 0.959800005
vt 0.964600027 0.997399986
vt 0.969399989 0.997399986
vt 0.969399989 0.959800005
vt 0.964600027 0.921800017
vt 0.969399989 0.921800017
vt 0.964600027 0.883899987
vt 0.969399989 0.883899987
vt 0.964600027 0.846099973
vt 0.969399989 0.846099973
vt 0.964600027 0.808300018
vt 0.969399989 0.808300018
vt 0.964600027 0.770299971
vt 0.969399989 0.770299971
vt 0.964600027 0.732299984
vt 0.969399989 0.732299984
vt 0.964600027 0.694700003
vt 0.969399989 0.694700003
vt 0.922399998 0.732299984
vt 0.922399998 0.694700003
vt 0.917500019 0.694700003
vt 0.917500019 0.732299984
vt 0.922399998 0.770299971
vt 0.917500019 0.770299971
vt 0.922399998 0.808300018
vt 0.917500019 0.808300018
vt 0.922399998 0.846099973
vt 0.917500019 0.846099973
vt 0.922399998 0.883899987
vt 0.917500019 0.883899987
vt 0.922399998 0.921800017
vt 0.917500019 0.921800017
vt 0.922399998 0.959800005
vt 0.917500019 0.959800005
vt 0.922399998 0.997399986
vt 0.917500019 0.997399986
vn 0.134521484 0.000371694565 0.990722656
vn 0.134155273 0.000423431396 0.990722656
vn 0.133911133 0.00021481514 0.991210938
vn 0.134521484 0.000371694565 0.990722656
vn 0.134521484 0.000376462936 0.990722656
vn 0.12902832 -4.13656235E-05 0.991699219
vn 0.134521484 0.000371694565 0.990722656
vn 0.126220703 -7.92145729E-05 0.9921875
vn 0.121398926 0 0.992675781
vn 0.121398926 0 0.992675781
vn 0.134521484 -0.000347852707 0.990722656
vn 0.133911133 -0.000205993652 0.991210938
vn 0.134155273 -0.000406265259 0.990722656
vn 0.134521484 -0.000347852707 0.990722656
vn 0.134521484 -0.000352621078 0.990722656
vn 0.12902832 5.19156456E-05 0.991699219
vn 0.134521484 -0.000347852707 0.990722656
vn 0.126220703 8.60095024E-05 0.9921875
vn 0.121398926 0 0.992675781
vn 0.121398926 0 0.992675781
vn -0.771484375 0.636230469 1.07288361E-06
vn -1 -3.03983688E-06 2.98023224E-07
vn -1 -5.24520874E-06 1.1920929E-07
vn -0.771484375 0.636230469 5.36441803E-07
vn -0.24621582 0.969238281 7.74860382E-07
vn -0.24621582 0.969238281 4.17232513E-07
vn -0 1 0
vn -0 1 0
vn 0.24621582 0.969238281 7.74860382E-07
vn 0.24621582 0.969238281 7.74860382E-07
vn 0.771484375 0.636230469 1.07288361E-06
vn 0.771484375 0.636230469 1.07288361E-06
vn 1 -3.03983688E-06 2.98023224E-07
vn 1 -3.03983688E-06 2.98023224E-07
vn 0.771484375 -0.636230469 0
vn 0.771484375 -0.636230469 0
vn 0.24621582 -0.969238281 0
vn 0.24621582 -0.969238281 0
vn -0 -1 0
vn -0 -1 0
vn -0.24621582 -0.969238281 0
vn -0.24621582 -0.969238281 0
vn -0.771484375 -0.636230469 0
vn -0.771484375 -0.636230469 0
vn -1 -3.03983688E-06 2.98023224E-07
vn -1 -5.24520874E-06 1.1920929E-07
vn -0 0 1
vn -0 0 1
vn -0 0 1
vn -0 0 1
vn -0 0 1
vn -0 0 1
vn -0 0 1
vn -0 0 1
vn -0 0 1
vn -0 0 1
vn -0 0 1
vn -0 0 1
vn -0 0.000299692154 -1
vn 9.53674316E-06 0.000118196011 -1
vn 3.28421593E-05 8.67247581E-05 -1
vn 3.15308571E-05 7.06315041E-05 -1
vn 4.35113907E-06 1.257658E-05 -1
vn 6.47306442E-05 6.2584877E-05 -1
vn 7.0810318E-05 5.49554825E-05 -1
vn 8.91685486E-05 0 -1
vn 8.91685486E-05 0 -1
vn 8.91685486E-05 0 -1
vn 7.05718994E-05 -5.47170639E-05 -1
vn 8.91685486E-05 0 -1
vn 6.44922256E-05 -6.24060631E-05 -1
vn 2.27093697E-05 -0.000101029873 -1
vn 1.76429749E-05 -0.000113010406 -1
vn -2.38418579E-07 -0.000104784966 -1
vn 4.35113907E-06 -0.000109493732 -1
vn -0 0 -1
vn -0.24621582 0.969238281 0
vn -0 1 0
vn -0 1 0
vn -0.24621582 0.969238281 4.17232513E-07
vn -0.771484375 0.636230469 0
vn -0.771484375 0.636230469 5.36441803E-07
vn -1 -7.4505806E-06 0
vn -1 -5.24520874E-06 1.1920929E-07
vn -0.771484375 -0.636230469 0
vn -0.771484375 -0.636230469 0
vn -0.24621582 -0.969238281 0
vn -0.24621582 -0.969238281 0
vn -0 -1 0
vn -0 -1 0
vn -0 0 -1
vn -0 0 -1
vn -0 0 -1
vn -0 0 -1
vn -0 0 -1
vn -0 0 -1
vn -0 0 -1
vn -0 0 -1
vn -0 0 -1
vn -0 0 -1
vn -0 0 -1
vn -0 0 -1
vn -0 0 -1
vn -0 0 -1
vn 0.258300781 -0.966308594 1.29938126E-05
vn 2.65240669E-05 -1 2.50935555E-05
vn 2.65240669E-05 -1 2.50935555E-05
vn 0.258300781 -0.966308594 1.29938126E-05
vn 0.779296875 -0.626464844 0
vn 0.779296875 -0.626464844 0
vn 1 1.13844872E-05 0
vn 1 1.13844872E-05 0
vn -0 1 0
vn 0.258300781 0.966308594 0
vn -0 1 0
vn 0.258300781 0.966308594 0
vn 0.779296875 0.626464844 0
vn 0.779296875 0.626464844 0
vn 1 1.13844872E-05 0
vn 1 1.13844872E-05 0
vn 1 0 0
vn 1 0 0
vn 1 0 0
vn 1 0 0
vn 1 0 0
vn 1 0 0
vn 1 0 0
vn 1 0 0
vn 0.198486328 0.979980469 -0.0269317627
vn -0.0481262207 0.999023438 0.00652694702
vn -0.0481262207 0.999023438 0.00652694702
vn 0.198486328 0.979980469 -0.0269317627
vn 0.750488281 0.652832031 -0.101867676
vn 0.751953125 0.650878906 -0.102050781
vn 0.990722656 -1.10268593E-05 -0.134399414
vn 0.990722656 -1.09672546E-05 -0.134399414
vn 0.751953125 -0.650878906 -0.102050781
vn 0.750488281 -0.652832031 -0.101867676
vn 0.198486328 -0.979980469 -0.0269317627
vn 0.198486328 -0.979980469 -0.0269317627
vn -0.0481262207 -0.999023438 0.00652694702
vn -0.0481262207 -0.999023438 0.00652694702
vn -0.990722656 0 0.134399414
vn -0.990722656 0 0.134399414
vn -0.990722656 0 0.134399414
vn -0.990722656 0 0.134399414
vn 0.0577697754 0.998535156 0.00089931488
vn 0.255859375 0.966796875 0.00185680389
vn 0.0577697754 0.998535156 0.00089931488
vn 0.274169922 0.961425781 0.00194549561
vn 0.736328125 0.676757812 0.00209236145
vn 0.750976562 0.66015625 0.00204277039
vn 1 -0.00092124939 0.0021686554
vn 1 -0.00092124939 0.0021686554
vn 0.057800293 -0.998535156 0.000900268555
vn 0.057800293 -0.998535156 0.000900268555
vn 0.256591797 -0.966308594 0.00253677368
vn 0.275390625 -0.961425781 0.00268936157
vn 0.735839844 -0.677246094 0.00372695923
vn 0.750976562 -0.66015625 0.00368690491
vn 1 -0.00092124939 0.0021686554
vn 1 -0.00092124939 0.0021686554
vn -1 0 -0.0219421387
vn -1 0 -0.0219421387
vn -1 0 -0.0219421387
vn -1 0 -0.0219421387
vn 0.133911133 -0.000205993652 0.991210938
vn 0.133911133 0.00021481514 0.991210938
vn 0.134155273 0.000423431396 0.990722656
vn 0.134155273 -0.000406265259 0.990722656
vn -0.134399414 0 -0.990722656
vn -0.134521484 0 -0.990722656
vn -0.134521484 0 -0.990722656
vn -0.134399414 0 -0.990722656
vn -0.131103516 0 -0.991210938
vn -0.131103516 0 -0.991210938
vn -0.108154297 0 -0.994140625
vn -0 0 -1
vn -0 0 -1
vn 3.57627869E-07 -5.06639481E-06 -1
vn -0 0 -1
vn -0 0 -1
vn 4.35113907E-06 -0.000109493732 -1
vn -2.38418579E-07 -0.000104784966 -1
vn 4.35113907E-06 1.257658E-05 -1
vn 9.53674316E-06 0.000118196011 -1
vn 2.38418579E-07 0 1
vn -0.70703125 0 0.70703125
vn 2.38418579E-07 0 1
vn -0.70703125 0 0.70703125
vn -1 0 4.17232513E-07
vn -1 0 4.17232513E-07
vn -0.70703125 0 -0.70703125
vn -0.70703125 0 -0.70703125
vn 2.38418579E-07 0 -1
vn 2.38418579E-07 0 -1
vn 0.70703125 0 -0.70703125
vn 0.70703125 0 -0.70703125
vn 1 0 4.17232513E-07
vn 1 0 4.17232513E-07
vn 0.70703125 0 0.70703125
vn 0.70703125 0 0.70703125
vn 2.38418579E-07 0 1
vn 2.38418579E-07 0 1
vn -0 -1 0
vn -0 -1 0
vn -0 -1 0
vn -0 -1 0
vn -0 -1 0
vn -0 -1 0
vn -0 -1 0
vn -0 -1 0
vn -0 1 0
vn -0 1 0
vn -0 1 0
vn -0 1 0
vn -0 1 0
vn -0 1 0
vn -0 1 0
vn -0 1 0
vn 2.38418579E-07 0 1
vn -0.70703125 0 0.70703125
vn 2.38418579E-07 0 1
vn -0.70703125 0 0.70703125
vn -1 0 3.57627869E-07
vn -1 0 3.57627869E-07
vn -0.70703125 0 -0.70703125
vn -0.70703125 0 -0.70703125
vn 2.38418579E-07 0 -1
vn 2.38418579E-07 0 -1
vn 0.70703125 0 -0.70703125
vn 0.70703125 0 -0.70703125
vn 1 0 3.57627869E-07
vn 1 0 3.57627869E-07
vn 0.70703125 0 0.70703125
vn 0.70703125 0 0.70703125
vn 2.38418579E-07 0 1
vn 2.38418579E-07 0 1
vn -0.70703125 0 0.70703125
vn 2.38418579E-07 0 1
vn 2.38418579E-07 0 1
vn -0.70703125 0 0.70703125
vn -1 0 3.57627869E-07
vn -1 0 3.57627869E-07
vn -0.70703125 0 -0.70703125
vn -0.70703125 0 -0.70703125
vn 2.38418579E-07 0 -1
vn 2.38418579E-07 0 -1
vn 0.70703125 0 -0.70703125
vn 0.70703125 0 -0.70703125
vn 1 0 3.57627869E-07
vn 1 0 3.57627869E-07
vn 0.70703125 0 0.70703125
vn 0.70703125 0 0.70703125
vn 2.38418579E-07 0 1
vn 2.38418579E-07 0 1
vn -0 -1 0
vn -0 -1 0
vn -0 -1 0
vn -0 -1 0
vn -0 -1 0
vn -0 -1 0
vn -0 -1 0
vn -0 -1 0
vn -0 -1 0
vn -0 -1 0
vn -0 -1 0
vn -0 -1 0
vn -0 -1 0
vn -0 -1 0
vn -0 -1 0
vn -0 -1 0
vn -0 -1 0
vn -0 -1 0
vn -0 1 0
vn -0 1 0
vn -0 1 0
vn -0 1 0
vn -0 1 0
vn -0 1 0
vn -0 1 0
vn -0 1 0
vn -0 1 0
vn -0 1 0
vn -0 1 0
vn -0 1 0
vn -0 1 0
vn -0 1 0
vn -0 1 0
vn -0 1 0
vn -0 1 0
vn -0 1 0
g crikent_0
f 3/3/3 2/2/2 1/1/1
f 2/2/2 5/5/5 4/4/4
f 5/5/5 6/6/6 4/4/4
f 6/6/6 8/8/8 7/7/7
f 6/6/6 9/9/9 8/8/8
f 9/9/9 10/10/10 8/8/8
f 13/13/13 12/12/12 11/11/11
f 15/15/15 13/13/13 14/14/14
f 16/16/16 15/15/15 14/14/14
f 18/18/18 16/16/16 17/17/17
f 19/19/19 16/16/16 18/18/18
f 20/20/20 19/19/19 18/18/18
f 23/23/23 22/22/22 21/21/21
f 24/24/24 23/23/23 21/21/21
f 24/24/24 21/21/21 25/25/25
f 26/26/26 24/24/24 25/25/25
f 25/25/25 27/27/27 26/26/26
f 27/27/27 28/28/28 26/26/26
f 29/29/29 28/28/28 27/27/27
f 30/30/30 29/29/29 27/27/27
f 29/29/29 30/30/30 31/31/31
f 30/30/30 32/32/32 31/31/31
f 31/31/31 32/32/32 33/33/33
f 32/32/32 34/34/34 33/33/33
f 33/33/33 34/34/34 35/35/35
f 34/34/34 36/36/36 35/35/35
f 35/35/35 36/36/36 37/37/37
f 36/36/36 38/38/38 37/37/37
f 37/37/37 38/38/38 39/39/39
f 38/38/38 40/40/40 39/39/39
f 39/39/39 40/40/40 41/41/41
f 42/42/42 39/39/39 41/41/41
f 42/42/42 41/41/41 43/43/43
f 44/44/44 42/42/42 43/43/43
f 44/44/44 43/43/43 45/45/45
f 46/46/46 44/44/44 45/45/45
f 49/49/49 48/48/48 47/47/47
f 48/48/48 50/50/50 47/47/47
f 50/50/50 51/51/51 47/47/47
f 52/52/52 51/51/51 50/50/50
f 53/53/53 52/52/52 50/50/50
f 53/53/53 54/54/54 52/52/52
f 54/54/54 55/55/55 52/52/52
f 56/56/56 55/55/55 54/54/54
f 57/57/57 56/56/56 54/54/54
f 57/57/57 58/58/58 56/56/56
f 61/61/61 60/60/60 59/59/59
f 61/61/61 62/62/62 60/60/60
f 62/62/62 63/63/63 60/60/60
f 62/62/62 61/61/61 64/64/64
f 61/61/61 65/65/65 64/64/64
f 66/66/66 64/64/64 65/65/65
f 67/67/67 66/66/66 65/65/65
f 70/70/70 69/69/69 68/68/68
f 69/69/69 71/71/71 68/68/68
f 69/69/69 72/72/72 71/71/71
f 72/72/72 73/73/73 71/71/71
f 72/72/72 74/74/74 73/73/73
f 74/74/74 75/75/75 73/73/73
f 76/76/76 74/74/74 72/72/72
f 79/79/79 78/78/78 77/77/77
f 80/80/80 79/79/79 77/77/77
f 80/80/80 77/77/77 81/81/81
f 82/82/82 80/80/80 81/81/81
f 82/82/82 81/81/81 83/83/83
f 84/84/84 82/82/82 83/83/83
f 84/84/84 83/83/83 85/85/85
f 86/86/86 84/84/84 85/85/85
f 86/86/86 85/85/85 87/87/87
f 88/88/88 86/86/86 87/87/87
f 88/88/88 87/87/87 89/89/89
f 90/90/90 88/88/88 89/89/89
f 93/93/93 92/92/92 91/91/91
f 94/94/94 93/93/93 91/91/91
f 95/95/95 94/94/94 91/91/91
f 96/96/96 95/95/95 91/91/91
f 97/97/97 95/95/95 96/96/96
f 98/98/98 97/97/97 96/96/96
f 97/97/97 98/98/98 99/99/99
f 100/100/100 97/97/97 99/99/99
f 100/100/100 99/99/99 101/101/101
f 102/102/102 100/100/100 101/101/101
f 102/102/102 101/101/101 103/103/103
f 104/104/104 102/102/102 103/103/103
f 107/107/107 106/106/106 105/105/105
f 108/108/108 107/107/107 105/105/105
f 108/108/108 105/105/105 109/109/109
f 110/110/110 108/108/108 109/109/109
f 110/110/110 109/109/109 111/111/111
f 112/112/112 110/110/110 111/111/111
f 115/115/115 114/114/114 113/113/113
f 114/114/114 116/116/116 113/113/113
f 114/114/114 117/117/117 116/116/116
f 117/117/117 118/118/118 116/116/116
f 117/117/117 119/119/119 118/118/118
f 119/119/119 120/120/120 118/118/118
f 123/123/123 122/122/122 121/121/121
f 124/124/124 123/123/123 121/121/121
f 127/127/127 126/126/126 125/125/125
f 128/128/128 127/127/127 125/125/125
f 131/131/131 130/130/130 129/129/129
f 130/130/130 132/132/132 129/129/129
f 129/129/129 132/132/132 133/133/133
f 132/132/132 134/134/134 133/133/133
f 133/133/133 134/134/134 135/135/135
f 134/134/134 136/136/136 135/135/135
f 135/135/135 136/136/136 137/137/137
f 138/138/138 135/135/135 137/137/137
f 138/138/138 137/137/137 139/139/139
f 137/137/137 140/140/140 139/139/139
f 139/139/139 140/140/140 141/141/141
f 140/140/140 142/142/142 141/141/141
f 145/145/145 144/144/144 143/143/143
f 146/146/146 145/145/145 143/143/143
f 149/149/149 148/148/148 147/147/147
f 148/148/148 150/150/150 147/147/147
f 148/148/148 151/151/151 150/150/150
f 151/151/151 152/152/152 150/150/150
f 151/151/151 153/153/153 152/152/152
f 153/153/153 154/154/154 152/152/152
f 157/157/157 156/156/156 155/155/155
f 158/158/158 157/157/157 155/155/155
f 159/159/159 157/157/157 158/158/158
f 160/160/160 159/159/159 158/158/158
f 161/161/161 159/159/159 160/160/160
f 162/162/162 161/161/161 160/160/160
f 165/165/165 164/164/164 163/163/163
f 166/166/166 165/165/165 163/163/163
f 169/169/169 168/168/168 167/167/167
f 170/170/170 169/169/169 167/167/167
f 173/173/173 172/172/172 171/171/171
f 172/172/172 174/174/174 171/171/171
f 174/174/174 175/175/175 171/171/171
f 175/175/175 176/176/176 171/171/171
f 177/177/177 176/176/176 175/175/175
f 180/180/180 179/179/179 178/178/178
f 181/181/181 180/180/180 178/178/178
f 182/182/182 181/181/181 178/178/178
f 180/180/180 181/181/181 183/183/183
f 184/184/184 180/180/180 183/183/183
f 181/181/181 185/185/185 183/183/183
f 186/186/186 185/185/185 181/181/181
f 189/189/189 188/188/188 187/187/187
f 188/188/188 190/190/190 187/187/187
f 188/188/188 191/191/191 190/190/190
f 191/191/191 192/192/192 190/190/190
f 191/191/191 193/193/193 192/192/192
f 193/193/193 194/194/194 192/192/192
f 193/193/193 195/195/195 194/194/194
f 195/195/195 196/196/196 194/194/194
f 195/195/195 197/197/197 196/196/196
f 197/197/197 198/198/198 196/196/196
f 197/197/197 199/199/199 198/198/198
f 199/199/199 200/200/200 198/198/198
f 199/199/199 201/201/201 200/200/200
f 201/201/201 202/202/202 200/200/200
f 201/201/201 203/203/203 202/202/202
f 203/203/203 204/204/204 202/202/202
f 207/207/207 206/206/206 205/205/205
f 208/208/208 207/207/207 205/205/205
f 207/207/207 208/208/208 209/209/209
f 210/210/210 208/208/208 205/205/205
f 211/211/211 210/210/210 205/205/205
f 212/212/212 208/208/208 210/210/210
f 215/215/215 214/214/214 213/213/213
f 216/216/216 215/215/215 213/213/213
f 215/215/215 216/216/216 217/217/217
f 218/218/218 216/216/216 213/213/213
f 219/219/219 218/218/218 213/213/213
f 220/220/220 216/216/216 218/218/218
f 223/223/223 222/222/222 221/221/221
f 222/222/222 224/224/224 221/221/221
f 222/222/222 225/225/225 224/224/224
f 225/225/225 226/226/226 224/224/224
f 225/225/225 227/227/227 226/226/226
f 227/227/227 228/228/228 226/226/226
f 227/227/227 229/229/229 228/228/228
f 229/229/229 230/230/230 228/228/228
f 229/229/229 231/231/231 230/230/230
f 231/231/231 232/232/232 230/230/230
f 231/231/231 233/233/233 232/232/232
f 233/233/233 234/234/234 232/232/232
f 233/233/233 235/235/235 234/234/234
f 235/235/235 236/236/236 234/234/234
f 235/235/235 237/237/237 236/236/236
f 237/237/237 238/238/238 236/236/236
f 241/241/241 240/240/240 239/239/239
f 242/242/242 241/241/241 239/239/239
f 242/242/242 239/239/239 243/243/243
f 244/244/244 242/242/242 243/243/243
f 244/244/244 243/243/243 245/245/245
f 246/246/246 244/244/244 245/245/245
f 246/246/246 245/245/245 247/247/247
f 248/248/248 246/246/246 247/247/247
f 248/248/248 247/247/247 249/249/249
f 250/250/250 248/248/248 249/249/249
f 250/250/250 249/249/249 251/251/251
f 252/252/252 250/250/250 251/251/251
f 252/252/252 251/251/251 253/253/253
f 254/254/254 252/252/252 253/253/253
f 254/254/254 253/253/253 255/255/255
f 256/256/256 254/254/254 255/255/255
f 259/259/259 258/258/258 257/257/257
f 260/260/260 259/259/259 257/257/257
f 260/260/260 257/257/257 261/261/261
f 262/262/262 260/260/260 261/261/261
f 262/262/262 261/261/261 263/263/263
f 264/264/264 262/262/262 263/263/263
f 264/264/264 263/263/263 265/265/265
f 266/266/266 264/264/264 265/265/265
f 266/266/266 265/265/265 267/267/267
f 268/268/268 266/266/266 267/267/267
f 268/268/268 267/267/267 269/269/269
f 270/270/270 268/268/268 269/269/269
f 270/270/270 269/269/269 271/271/271
f 272/272/272 270/270/270 271/271/271
f 272/272/272 271/271/271 273/273/273
f 274/274/274 272/272/272 273/273/273
f 277/277/277 276/276/276 275/275/275
f 278/278/278 277/277/277 275/275/275
f 278/278/278 275/275/275 279/279/279
f 280/280/280 278/278/278 279/279/279
f 280/280/280 279/279/279 281/281/281
f 282/282/282 280/280/280 281/281/281
f 282/282/282 281/281/281 283/283/283
f 284/284/284 282/282/282 283/283/283
f 284/284/284 283/283/283 285/285/285
f 286/286/286 284/284/284 285/285/285
f 286/286/286 285/285/285 287/287/287
f 288/288/288 286/286/286 287/287/287
f 288/288/288 287/287/287 289/289/289
f 290/290/290 288/288/288 289/289/289
f 290/290/290 289/289/289 291/291/291
f 292/292/292 290/290/290 291/291/291
