g model
v -0.0303145982 -2.90235943E-18 0.0473991223
v 0.0303145982 2.90235943E-18 -0.0473991223
v -0.0303145982 2.90235943E-18 -0.0473991223
v 0.0303145982 -2.90235943E-18 0.0473991223
v -0.0303145982 0.027289642 0.0473991223
v 0.0303145982 0.027289642 -0.0473991223
v 0.0303145982 0.027289642 0.0473991223
v -0.0303145982 0.027289642 -0.0473991223
v -0.0303145982 -2.90235943E-18 0.0473991223
v 0.0303145982 0.027289642 0.0473991223
v 0.0303145982 -2.90235943E-18 0.0473991223
v -0.0303145982 0.027289642 0.0473991223
v 0.0303145982 -2.90235943E-18 0.0473991223
v 0.0303145982 0.027289642 -0.0473991223
v 0.0303145982 2.90235943E-18 -0.0473991223
v 0.0303145982 0.027289642 0.0473991223
v 0.0303145982 2.90235943E-18 -0.0473991223
v -0.0303145982 0.027289642 -0.0473991223
v -0.0303145982 2.90235943E-18 -0.0473991223
v 0.0303145982 0.027289642 -0.0473991223
v -0.0303145982 2.90235943E-18 -0.0473991223
v -0.0303145982 0.027289642 0.0473991223
v -0.0303145982 -2.90235943E-18 0.0473991223
v -0.0303145982 0.027289642 -0.0473991223
vt 0.996272981 0.64910692
vt 0.959331036 0.706868231
vt 0.996272981 0.706868231
vt 0.959331036 0.64910692
vt 0.90382719 0.649106741
vt 0.940769434 0.706868231
vt 0.940769434 0.649107039
vt 0.90382719 0.70686847
vt 0.996295035 0.648394406
vt 0.959352791 0.631766021
vt 0.959352791 0.648393691
vt 0.996295035 0.631766438
vt 0.95831275 0.64910692
vt 0.941685677 0.706868231
vt 0.95831275 0.706868231
vt 0.941685677 0.649107039
vt 0.940769434 0.724052072
vt 0.90382719 0.707424641
vt 0.90382719 0.724052608
vt 0.940769434 0.707424164
vt 0.88628304 0.706868231
vt 0.902911067 0.649106741
vt 0.88628304 0.64910692
vt 0.902911067 0.70686847
vn -0 -1 0
vn -0 -1 0
vn -0 -1 0
vn -0 -1 0
vn -0 1 0
vn -0 1 0
vn -0 1 0
vn -0 1 0
vn -0 0 1
vn -0 0 1
vn -0 0 1
vn -0 0 1
vn 1 0 0
vn 1 0 0
vn 1 0 0
vn 1 0 0
vn -0 0 -1
vn -0 0 -1
vn -0 0 -1
vn -0 0 -1
vn -1 0 0
vn -1 0 0
vn -1 0 0
vn -1 0 0
g model_0
f 3/3/3 2/2/2 1/1/1
f 4/4/4 1/1/1 2/2/2
f 7/7/7 6/6/6 5/5/5
f 8/8/8 5/5/5 6/6/6
f 11/11/11 10/10/10 9/9/9
f 12/12/12 9/9/9 10/10/10
f 15/15/15 14/14/14 13/13/13
f 16/16/16 13/13/13 14/14/14
f 19/19/19 18/18/18 17/17/17
f 20/20/20 17/17/17 18/18/18
f 23/23/23 22/22/22 21/21/21
f 24/24/24 21/21/21 22/22/22
