g model
v -0.0303145982 -2.90235943E-18 0.0473991223
v 0.0303145982 2.90235943E-18 -0.0473991223
v -0.0303145982 2.90235943E-18 -0.0473991223
v 0.0303145982 -2.90235943E-18 0.0473991223
v -0.0303145982 0.027289642 0.0473991223
v 0.0303145982 0.027289642 -0.0473991223
v 0.0303145982 0.027289642 0.0473991223
v -0.0303145982 0.027289642 -0.0473991223
v -0.0303145982 -2.90235943E-18 0.0473991223
v 0.0303145982 0.027289642 0.0473991223
v 0.0303145982 -2.90235943E-18 0.0473991223
v -0.0303145982 0.027289642 0.0473991223
v 0.0303145982 -2.90235943E-18 0.0473991223
v 0.0303145982 0.027289642 -0.0473991223
v 0.0303145982 2.90235943E-18 -0.0473991223
v 0.0303145982 0.027289642 0.0473991223
v 0.0303145982 2.90235943E-18 -0.0473991223
v -0.0303145982 0.027289642 -0.0473991223
v -0.0303145982 2.90235943E-18 -0.0473991223
v 0.0303145982 0.027289642 -0.0473991223
v -0.0303145982 2.90235943E-18 -0.0473991223
v -0.0303145982 0.027289642 0.0473991223
v -0.0303145982 -2.90235943E-18 0.0473991223
v -0.0303145982 0.027289642 -0.0473991223
vt 0.999800503 0.340023786
vt 0.962249041 0.402791709
vt 0.999800503 0.402791709
vt 0.962249041 0.340023786
vt 0.962769389 0.419554889
vt 0.999084115 0.48048988
vt 0.999084115 0.419555217
vt 0.962769389 0.480490118
vt 0.962447822 0.40463078
vt 0.999185801 0.417583138
vt 0.999185801 0.404536635
vt 0.962447822 0.41758281
vt 0.96176672 0.340304375
vt 0.950305104 0.402791649
vt 0.96176672 0.402791649
vt 0.950305104 0.340304494
vt 0.998868287 0.492269874
vt 0.960846722 0.480678767
vt 0.960846722 0.492270261
vt 0.998868287 0.480678439
vt 0.950302303 0.402787864
vt 0.961760581 0.341724545
vt 0.950302303 0.341724724
vt 0.961760581 0.402788162
vn -0 -1 0
vn -0 -1 0
vn -0 -1 0
vn -0 -1 0
vn -0 1 0
vn -0 1 0
vn -0 1 0
vn -0 1 0
vn -0 0 1
vn -0 0 1
vn -0 0 1
vn -0 0 1
vn 1 0 0
vn 1 0 0
vn 1 0 0
vn 1 0 0
vn -0 0 -1
vn -0 0 -1
vn -0 0 -1
vn -0 0 -1
vn -1 0 0
vn -1 0 0
vn -1 0 0
vn -1 0 0
g model_0
f 3/3/3 2/2/2 1/1/1
f 4/4/4 1/1/1 2/2/2
f 7/7/7 6/6/6 5/5/5
f 8/8/8 5/5/5 6/6/6
f 11/11/11 10/10/10 9/9/9
f 12/12/12 9/9/9 10/10/10
f 15/15/15 14/14/14 13/13/13
f 16/16/16 13/13/13 14/14/14
f 19/19/19 18/18/18 17/17/17
f 20/20/20 17/17/17 18/18/18
f 23/23/23 22/22/22 21/21/21
f 24/24/24 21/21/21 22/22/22
