g model
v -0.0303146355 -2.90235943E-18 0.0473991223
v 0.0303145591 2.90235943E-18 -0.0473991223
v -0.0303146355 2.90235943E-18 -0.0473991223
v 0.0303145591 -2.90235943E-18 0.0473991223
v -0.0303146355 0.027289642 0.0473991223
v 0.0303145591 0.027289642 -0.0473991223
v 0.0303145591 0.027289642 0.0473991223
v -0.0303146355 0.027289642 -0.0473991223
v -0.0303146355 -2.90235943E-18 0.0473991223
v 0.0303145591 0.027289642 0.0473991223
v 0.0303145591 -2.90235943E-18 0.0473991223
v -0.0303146355 0.027289642 0.0473991223
v 0.0303145591 -2.90235943E-18 0.0473991223
v 0.0303145591 0.027289642 -0.0473991223
v 0.0303145591 2.90235943E-18 -0.0473991223
v 0.0303145591 0.027289642 0.0473991223
v 0.0303145591 2.90235943E-18 -0.0473991223
v -0.0303146355 0.027289642 -0.0473991223
v -0.0303146355 2.90235943E-18 -0.0473991223
v 0.0303145591 0.027289642 -0.0473991223
v -0.0303146355 2.90235943E-18 -0.0473991223
v -0.0303146355 0.027289642 0.0473991223
v -0.0303146355 -2.90235943E-18 0.0473991223
v -0.0303146355 0.027289642 -0.0473991223
vt 0.996650636 0.572777331
vt 0.959708214 0.630538702
vt 0.996650636 0.630538702
vt 0.95970726 0.572777331
vt 0.904203653 0.572777331
vt 0.941145897 0.630538762
vt 0.941145897 0.572777212
vt 0.904203653 0.630538583
vt 0.904203653 0.555523276
vt 0.941145897 0.572150528
vt 0.941145897 0.555523038
vt 0.904203653 0.572151065
vt 0.958689094 0.572777331
vt 0.942061782 0.630538762
vt 0.958690166 0.630538702
vt 0.942061782 0.572777212
vt 0.904203117 0.631047666
vt 0.94114536 0.647675931
vt 0.941145837 0.631048381
vt 0.904203117 0.647675693
vt 0.886659622 0.630538702
vt 0.903287649 0.572777331
vt 0.886659622 0.572777331
vt 0.903287649 0.630538583
vn -0 -1 0
vn -0 -1 0
vn -0 -1 0
vn -0 -1 0
vn -0 1 0
vn -0 1 0
vn -0 1 0
vn -0 1 0
vn -0 0 1
vn -0 0 1
vn -0 0 1
vn -0 0 1
vn 1 0 0
vn 1 0 0
vn 1 0 0
vn 1 0 0
vn -0 0 -1
vn -0 0 -1
vn -0 0 -1
vn -0 0 -1
vn -1 0 0
vn -1 0 0
vn -1 0 0
vn -1 0 0
g model_0
f 3/3/3 2/2/2 1/1/1
f 4/4/4 1/1/1 2/2/2
f 7/7/7 6/6/6 5/5/5
f 8/8/8 5/5/5 6/6/6
f 11/11/11 10/10/10 9/9/9
f 12/12/12 9/9/9 10/10/10
f 15/15/15 14/14/14 13/13/13
f 16/16/16 13/13/13 14/14/14
f 19/19/19 18/18/18 17/17/17
f 20/20/20 17/17/17 18/18/18
f 23/23/23 22/22/22 21/21/21
f 24/24/24 21/21/21 22/22/22
